<svg width="15" height="15" viewBox="0 0 10 10" fill="none" xmlns="http://www.w3.org/2000/svg">
<path d="M5.36083 1.25L9.33 8.125C9.36657 8.18834 9.38582 8.26019 9.38582 8.33333C9.38582 8.40647 9.36657 8.47832 9.33 8.54166C9.29343 8.605 9.24084 8.6576 9.1775 8.69418C9.11416 8.73075 9.04231 8.75 8.96917 8.75H1.03083C0.957694 8.75 0.885844 8.73075 0.822504 8.69418C0.759164 8.6576 0.706567 8.605 0.669998 8.54166C0.633429 8.47832 0.614177 8.40647 0.614178 8.33333C0.614178 8.26019 0.633431 8.18834 0.67 8.125L4.63917 1.25C4.67574 1.18667 4.72834 1.13407 4.79168 1.0975C4.85502 1.06094 4.92686 1.04169 5 1.04169C5.07314 1.04169 5.14499 1.06094 5.20832 1.0975C5.27166 1.13407 5.32426 1.18667 5.36083 1.25Z" fill="black"/>
</svg>
