<svg width="15" height="15" viewBox="0 0 10 8" fill="none" xmlns="http://www.w3.org/2000/svg">
<path d="M4.63344 7.74944L0.674738 0.868408C0.638265 0.805012 0.619122 0.733132 0.619233 0.659992C0.619344 0.586853 0.638705 0.515032 0.67537 0.451747C0.712035 0.388461 0.764712 0.335942 0.828108 0.299467C0.891503 0.262993 0.963383 0.243849 1.03652 0.243958L8.97485 0.256041C9.04799 0.256154 9.11981 0.275517 9.18309 0.312184C9.24638 0.348851 9.29889 0.401531 9.33537 0.464928C9.37184 0.528324 9.39098 0.600204 9.39087 0.673343C9.39076 0.746483 9.37139 0.818304 9.33473 0.881589L5.3551 7.75054C5.31843 7.81382 5.26576 7.86634 5.20236 7.90281C5.13897 7.93928 5.06709 7.95842 4.99395 7.95831C4.92082 7.95819 4.849 7.93883 4.78571 7.90217C4.72243 7.86551 4.66991 7.81283 4.63344 7.74944Z" fill="black"/>
</svg>
